<svg width="79" height="16" viewBox="0 0 79 16" fill="none" xmlns="http://www.w3.org/2000/svg">
<path d="M4.99219 16L0.414062 0H4.10938L6.75781 11.1172H6.89063L9.8125 0H12.9766L15.8906 11.1406H16.0312L18.6797 0H22.375L17.7969 16H14.5L11.4531 5.53906H11.3281L8.28906 16H4.99219Z" fill="#B411A3"/>
<path d="M24.1855 16V0H34.9668V2.78906H27.5684V6.60156H34.4121V9.39062H27.5684V13.2109H34.998V16H24.1855Z" fill="#B411A3"/>
<path d="M37.6562 16V0H48.4375V2.78906H41.0391V6.60156H47.8828V9.39062H41.0391V13.2109H48.4688V16H37.6562Z" fill="#B411A3"/>
<path d="M51.127 16V0H61.9082V2.78906H54.5098V6.60156H61.3535V9.39062H54.5098V13.2109H61.9395V16H51.127Z" fill="#B411A3"/>
<path d="M64.5977 16V0H67.9805V7.05469H68.1914L73.9492 0H78.0039L72.0664 7.16406L78.0742 16H74.0273L69.6445 9.42188L67.9805 11.4531V16H64.5977Z" fill="#B411A3"/>
</svg>
